<mxfile host="app.diagrams.net" agent="Mozilla/5.0 (Macintosh; Intel Mac OS X 10_15_7) AppleWebKit/537.36 (KHTML, like Gecko) Chrome/131.0.0.0 Safari/537.36" version="26.0.7">
  <diagram name="PÃ¡gina-1" id="zJhYZdx6QAPMmipg2DAe">
    <mxGraphModel dx="1224" dy="650" grid="1" gridSize="10" guides="1" tooltips="1" connect="1" arrows="1" fold="1" page="1" pageScale="1" pageWidth="827" pageHeight="1169" math="0" shadow="0">
      <root>
        <mxCell id="0" />
        <mxCell id="1" parent="0" />
        <mxCell id="rVsBkg8KQ-rNvBP4SJUc-1" value="" style="shape=cylinder3;whiteSpace=wrap;html=1;boundedLbl=1;backgroundOutline=1;size=15;" vertex="1" parent="1">
          <mxGeometry x="160" y="130" width="60" height="80" as="geometry" />
        </mxCell>
        <mxCell id="rVsBkg8KQ-rNvBP4SJUc-3" value="Vertical Container" style="swimlane;whiteSpace=wrap;html=1;" vertex="1" parent="1">
          <mxGeometry x="214" y="200" width="200" height="200" as="geometry" />
        </mxCell>
        <mxCell id="rVsBkg8KQ-rNvBP4SJUc-2" value="" style="shape=card;whiteSpace=wrap;html=1;" vertex="1" parent="rVsBkg8KQ-rNvBP4SJUc-3">
          <mxGeometry x="60" y="50" width="80" height="100" as="geometry" />
        </mxCell>
        <mxCell id="rVsBkg8KQ-rNvBP4SJUc-4" value="Actor" style="shape=umlActor;verticalLabelPosition=bottom;verticalAlign=top;html=1;outlineConnect=0;" vertex="1" parent="1">
          <mxGeometry x="490" y="310" width="30" height="60" as="geometry" />
        </mxCell>
      </root>
    </mxGraphModel>
  </diagram>
</mxfile>
